<svg width="160" height="130" viewBox="0 0 160 130" fill="none" xmlns="http://www.w3.org/2000/svg">
<g clip-path="url(#clip0_7565_6216)">
<path d="M75.9466 128.724C129.636 134.157 157.305 120.95 158.957 89.1023C161.434 41.3305 119.707 46.4912 107.555 33.9008C95.4024 21.3104 109.016 39.2029 85.6122 13.1126C70.009 -4.28119 49.2181 -4.37052 23.2395 12.8453C2.28476 29.9 0.0184231 52.2664 16.4398 79.9436C32.8611 107.62 52.6965 123.88 75.9466 128.724Z" fill="#FAFBFF"/>
<path d="M10.0843 98.4476L8.408 100.124L5.66435 97.3788L2.91505 100.128L1.23877 98.4518L3.98666 95.7025L1.24301 92.9588L2.91929 91.2811L5.66294 94.0262L8.41224 91.2783L10.0885 92.9546L7.34063 95.7039L10.0843 98.4476Z" fill="#E6E6E6"/>
<path d="M147.849 38.3911C145.115 38.3911 142.901 36.1738 142.901 33.4406C142.901 30.7075 145.115 28.4902 147.849 28.4902C150.583 28.4902 152.796 30.7075 152.796 33.4406C152.796 36.1738 150.583 38.3911 147.849 38.3911ZM147.849 35.5696C149.019 35.5696 149.969 34.6177 149.969 33.4406C149.969 32.2636 149.019 31.3117 147.849 31.3117C146.678 31.3117 145.728 32.2636 145.728 33.4406C145.728 34.6177 146.678 35.5696 147.849 35.5696Z" fill="#E6E6E6"/>
<path d="M51.5469 10.4772C62.3745 10.4772 63.7279 16.877 63.7279 23.2653V30.2348C63.7279 31.3392 64.5677 32.2366 65.6011 32.2366L129.399 31.6816C130.433 31.6816 131.272 30.785 131.272 29.6806V22.1669C131.272 15.3131 126.074 9.75586 119.662 9.75586C119.227 9.75586 51.0935 10.4772 51.5469 10.4772Z" fill="#D8DAE5"/>
<path d="M51.5449 11.6485C51.5449 12.6933 52.3942 13.5413 53.4397 13.5413C119.675 13.5413 119.687 13.5406 119.7 13.5413C124.04 13.5487 127.557 17.0961 127.564 21.4752V30.4539H129.437C130.47 30.4539 131.309 29.608 131.309 28.5652V21.4752C131.337 14.9996 126.156 9.72794 119.737 9.7002H119.662H118.963C118.791 9.71035 118.624 9.73809 118.454 9.75636H53.437C52.3922 9.75636 51.5449 10.6036 51.5449 11.6485Z" fill="#D8DAE5"/>
<path d="M119.662 13.3086V9.75586H52.2021C43.3627 9.76939 36.2003 16.992 36.1868 25.9045V118.634C36.1868 119.676 37.0259 120.522 38.0593 120.522H95.8195C104.647 120.494 111.792 113.274 111.798 104.373V21.4618V21.3731C111.853 17.0306 115.356 13.3208 119.662 13.3147C119.68 13.3147 119.696 13.3093 119.713 13.3086H119.662Z" fill="white"/>
<path d="M52.1656 9.75516C43.3256 9.76937 36.1625 16.992 36.1489 25.9044V80.1924L76.4829 9.70508L52.1656 9.75516Z" fill="#EDEFF5"/>
<path d="M36.1862 47.8V27.1005C36.2004 18.1874 43.3629 10.9654 52.2029 10.9512H119.663M31.3923 117.953C35.4209 117.953 36.1497 113.673 36.1497 110.968C36.1497 88.8479 36.1862 73.2116 36.1862 67.6023M36.5388 54.124V56.6109" stroke="#E6E8F0" stroke-width="7.2" stroke-miterlimit="10" stroke-linecap="round"/>
<path d="M119.663 9.69922H118.963C112.84 10.0721 108.061 15.1847 108.053 21.3733V21.55V104.326C108.041 109.966 104.263 114.89 98.8533 116.315C98.2619 116.469 97.6562 116.545 97.0512 116.551V116.553H97.0045H96.9565H26.9307C29.7418 119.034 33.4191 120.543 37.4476 120.546H37.4726H57.6626H95.8203C96.2317 120.546 96.8678 120.546 97.2806 120.483C98.0081 120.416 98.7295 120.295 99.4394 120.119C106.691 118.415 111.827 111.9 111.836 104.389V21.4363V21.3483C111.89 17.2778 114.982 13.9084 119 13.5403C119.222 13.5281 119.647 13.5295 119.868 13.5403L119.663 9.69922Z" fill="#E6E6E6"/>
<path d="M119.661 9.69922H118.962C112.839 10.0728 108.062 15.1847 108.053 21.3734V21.55V104.326C108.041 109.966 104.263 114.891 98.8534 116.315C97.6252 116.635 96.3353 116.635 95.1077 116.315C89.6811 114.871 85.9043 109.912 85.9192 104.251V101.732C85.9267 100.689 85.0943 99.8365 84.0603 99.8304H72.1912H62.6488H47.9375H32.5347H23.3286C22.2952 99.8304 21.4561 100.677 21.4561 101.72V104.39C21.4479 113.305 28.609 120.539 37.4477 120.546H37.4714H57.6614H95.8183C96.2304 120.546 96.8672 120.546 97.2794 120.483C98.0075 120.416 98.7296 120.295 99.4394 120.119C106.691 118.416 111.826 111.9 111.835 104.39V21.437V21.3483C111.888 17.2785 114.982 13.9077 119 13.541C119.233 13.5281 119.466 13.5281 119.699 13.541C124.04 13.5477 127.557 17.0958 127.564 21.4742V30.4536H129.436C130.471 30.4536 131.31 29.6077 131.31 28.5649V21.4742C131.337 14.9986 126.156 9.72764 119.737 9.69922H119.661Z" fill="#E6E8F0"/>
<path d="M119.437 85.6801C120.713 84.4086 122.777 84.4106 124.051 85.6828L140.149 101.754C141.419 103.022 141.421 105.08 140.152 106.351L140.147 106.357C138.871 107.628 136.807 107.627 135.532 106.354L119.435 90.2832C118.164 89.0143 118.163 86.9564 119.431 85.6862L119.437 85.6801Z" fill="#EDEFF5"/>
<path d="M122.871 89.0043C132.812 79.8958 133.5 64.4704 124.411 54.5507C115.32 44.6304 99.8943 43.9727 89.954 53.0812C80.0138 62.1897 79.3236 77.6155 88.4138 87.5358C97.5036 97.4555 112.931 98.1128 122.871 89.0043Z" fill="#CAD8E9"/>
<path d="M122.871 89.0043C132.812 79.8958 133.501 64.4704 124.411 54.5507C115.32 44.6304 99.8943 43.9727 89.954 53.0812C80.0138 62.1897 79.3236 77.6155 88.4138 87.5358C97.5036 97.4555 112.931 98.1128 122.871 89.0043Z" stroke="#EDEFF5" stroke-width="7.2" stroke-miterlimit="10"/>
<path d="M51.2737 83.3604H69.5824" stroke="#C1C4D6" stroke-width="7.2" stroke-miterlimit="10" stroke-linecap="round"/>
<path d="M51.2737 66.3057H69.5824" stroke="#C1C4D6" stroke-width="7.2" stroke-miterlimit="10" stroke-linecap="round"/>
<path d="M51.2729 49.252H92.7729" stroke="#C1C4D6" stroke-width="7.2" stroke-miterlimit="10" stroke-linecap="round"/>
<path d="M51.2729 30.9805H97.5682" stroke="#C1C4D6" stroke-width="7.2" stroke-miterlimit="10" stroke-linecap="round"/>
<path d="M128.014 82.2616L128.014 82.2616L144.112 98.333C144.112 98.3331 144.112 98.3331 144.112 98.3331C144.991 99.2108 144.992 100.636 144.114 101.516L144.111 101.519C144.11 101.519 144.11 101.52 144.11 101.52C143.225 102.401 141.793 102.401 140.908 101.517L140.908 101.517L124.811 85.4468C124.811 85.4467 124.811 85.4466 124.81 85.4466C123.931 84.5679 123.93 83.1431 124.808 82.2638L124.813 82.2594C124.813 82.2593 124.813 82.2591 124.813 82.2589C125.698 81.3775 127.13 81.3787 128.014 82.2616Z" fill="#C1C4D6" stroke="#C1C4D6" stroke-width="2"/>
<path d="M128.343 51.0983C137.058 60.6095 136.4 75.4024 126.865 84.1391C117.331 92.8758 102.536 92.2434 93.8205 82.7322C85.1047 73.2206 85.7646 58.4273 95.2991 49.6906C104.833 40.9539 119.627 41.5867 128.343 51.0983Z" fill="white" stroke="#C1C4D6" stroke-width="2"/>
<path d="M127.541 84.8764C137.481 75.7678 138.17 60.3425 129.08 50.4227C119.99 40.5025 104.564 39.8448 94.6235 48.9533C84.6833 58.0618 83.993 73.4876 93.0832 83.4078C102.173 93.3276 117.601 93.9849 127.541 84.8764Z" stroke="#C1C4D6" stroke-width="7.2" stroke-miterlimit="10"/>
<path d="M111.126 68.048L105.934 73.2387L105.027 72.3314L110.218 67.1397L110.925 66.4326L110.218 65.7255L104.982 60.4891L105.876 59.5948L111.112 64.8314L111.819 65.5386L112.526 64.8314L117.718 59.6402L118.625 60.5479L113.434 65.7398L112.727 66.4469L113.434 67.1539L118.67 72.3903L117.776 73.2841L112.54 68.048L111.833 67.3409L111.126 68.048Z" fill="#A9CC3D" stroke="#C1C4D6" stroke-width="2"/>
</g>
<defs>
<clipPath id="clip0_7565_6216">
<rect width="159" height="130" fill="white" transform="translate(0.5)"/>
</clipPath>
</defs>
</svg>
